<?xml version="1.0" encoding="UTF-8" standalone="no"?>
<svg
   enable-background="new 0 0 512 512"
   height="100"
   id="Layer_1"
   version="1.1"
   viewBox="0 0 75.789124 100"
   width="75.789124"
   xml:space="preserve"
   sodipodi:docname="money.svg"
   inkscape:version="1.1.2 (b8e25be833, 2022-02-05)"
   xmlns:inkscape="http://www.inkscape.org/namespaces/inkscape"
   xmlns:sodipodi="http://sodipodi.sourceforge.net/DTD/sodipodi-0.dtd"
   xmlns="http://www.w3.org/2000/svg"
   xmlns:svg="http://www.w3.org/2000/svg"><defs
     id="defs7" /><sodipodi:namedview
     id="namedview5"
     pagecolor="#ffffff"
     bordercolor="#666666"
     borderopacity="1.0"
     inkscape:pageshadow="2"
     inkscape:pageopacity="0.0"
     inkscape:pagecheckerboard="0"
     showgrid="false"
     fit-margin-top="0"
     fit-margin-left="0"
     fit-margin-right="0"
     fit-margin-bottom="0"
     inkscape:zoom="1.6230469"
     inkscape:cx="193.4633"
     inkscape:cy="162.65704"
     inkscape:window-width="1920"
     inkscape:window-height="1017"
     inkscape:window-x="-8"
     inkscape:window-y="-8"
     inkscape:window-maximized="1"
     inkscape:current-layer="Layer_1" /><path
     d="m 33.329432,52.380765 c -0.43203,0.343945 -0.767576,0.773632 -1.015232,1.286131 -0.24375,0.508202 -0.368945,1.107615 -0.368945,1.800192 0,1.084959 0.346875,1.923629 1.036912,2.518746 0.690429,0.589842 1.82695,1.07031 3.40644,1.430466 v -8.047056 c -0.560546,0 -1.10703,0.08203 -1.631247,0.24707 -0.523828,0.165038 -1.003905,0.417968 -1.427928,0.764451 M 43.42316,69.016478 C 42.61457,68.37644 41.24543,67.793043 39.30384,67.267653 v 9.474006 c 0.59062,-0.06172 1.21054,-0.20332 1.8457,-0.416991 0.64589,-0.214843 1.21757,-0.516991 1.73476,-0.914452 0.50527,-0.391796 0.92226,-0.879881 1.25527,-1.454294 0.32793,-0.576757 0.49355,-1.259763 0.49355,-2.048824 0,-1.28242 -0.40605,-2.248043 -1.20996,-2.89062 m 9.94217,-37.446417 0.007,0.0061 c -0.0221,-0.02441 -0.0369,-0.04805 -0.0592,-0.07207 -0.94512,-1.315623 -1.88984,-2.580464 -2.81191,-3.783196 -1.21797,-2.037106 -1.85996,-4.515617 -0.36953,-8.091197 v -0.0023 L 55.27314,7.3249869 47.20187,3.6464778 48.02804,0 H 27.752294 l 1.062889,4.6462807 -8.302915,2.6789015 5.137491,12.3023218 v 0.0023 C 28.192332,25.711673 24.553081,28.61616 22.416171,31.576311 11.839432,46.20148 0,67.140309 0,79.763334 c 0,20.931016 16.257197,20.233948 37.894463,20.233948 21.634337,0 37.894657,0.697068 37.894657,-20.233948 0,-12.625368 -11.85056,-33.564003 -22.42379,-48.193273 M 32.801894,21.299376 H 43.14992 v 6.530066 H 32.801894 Z M 51.09952,74.940295 c -0.36211,1.106444 -1.01133,2.182809 -1.94902,3.234174 -0.93731,1.055662 -2.19902,1.992965 -3.77949,2.816597 -1.57949,0.822655 -3.60155,1.314841 -6.06717,1.479294 v 4.198625 H 36.388607 V 82.47036 c -3.686908,-0.262109 -6.569129,-1.39824 -8.639438,-3.407611 -2.077926,-2.007223 -3.277533,-4.950968 -3.605462,-8.837484 h 6.960729 c -0.03027,1.881051 0.464062,3.358197 1.48281,4.44589 1.018553,1.084959 2.288863,1.776169 3.801556,2.0707 V 66.42742 c -0.16582,-0.06836 -0.387109,-0.141601 -0.667772,-0.223437 -0.280664,-0.08301 -0.586718,-0.157031 -0.911522,-0.222265 -1.217576,-0.329101 -2.420699,-0.717772 -3.601947,-1.159178 -1.188474,-0.443554 -2.251168,-1.038865 -3.18808,-1.77695 -0.937889,-0.740233 -1.686911,-1.665427 -2.244723,-2.764057 -0.560545,-1.103905 -0.841209,-2.477144 -0.841209,-4.123235 0,-1.678318 0.321484,-3.159955 0.966795,-4.442766 0.641991,-1.284763 1.483982,-2.362105 2.539253,-3.23515 1.055663,-0.870897 2.273629,-1.544333 3.653705,-2.023434 1.384177,-0.476562 2.812104,-0.764256 4.295695,-0.864061 v -3.80136 h 2.915233 v 3.80136 c 1.47695,0.165039 2.86816,0.487109 4.17069,0.962889 1.29531,0.480077 2.43906,1.134959 3.43183,1.974996 0.98125,0.83828 1.79355,1.885739 2.41367,3.132417 0.62734,1.257615 0.98906,2.736323 1.08496,4.444132 h -7.00819 c -0.0334,-1.313669 -0.44688,-2.435542 -1.23301,-3.354291 -0.79355,-0.923045 -1.7457,-1.383981 -2.86034,-1.383981 v 8.73807 c 0.3916,0.100976 0.79433,0.199414 1.21054,0.296288 0.40605,0.0998 0.84512,0.211719 1.30625,0.346875 2.43574,0.656249 4.31132,1.472067 5.62421,2.443159 1.31425,0.970311 2.28847,1.981637 2.91581,3.035151 0.62383,1.056834 0.99277,2.109762 1.11094,3.160932 0.11406,1.053904 0.17363,1.989059 0.17363,2.81562 3.9e-4,0.719921 -0.18437,1.635349 -0.5457,2.735151"
     id="path2"
     style="fill:#000000;fill-opacity:1;stroke-width:0.195312" /></svg>
