<?xml version="1.0" encoding="UTF-8" standalone="no"?>
<!-- Created with Inkscape (http://www.inkscape.org/) -->

<svg
   width="86.153564mm"
   height="41.354572mm"
   viewBox="0 0 86.153566 41.354573"
   version="1.1"
   id="svg4685"
   inkscape:version="1.1.2 (b8e25be833, 2022-02-05)"
   sodipodi:docname="puzzle-logo.svg"
   inkscape:export-filename="C:\Users\miria\Downloads\final-clue\puzzle-logo.png"
   inkscape:export-xdpi="102"
   inkscape:export-ydpi="102"
   xmlns:inkscape="http://www.inkscape.org/namespaces/inkscape"
   xmlns:sodipodi="http://sodipodi.sourceforge.net/DTD/sodipodi-0.dtd"
   xmlns="http://www.w3.org/2000/svg"
   xmlns:svg="http://www.w3.org/2000/svg"
   xmlns:rdf="http://www.w3.org/1999/02/22-rdf-syntax-ns#"
   xmlns:cc="http://creativecommons.org/ns#"
   xmlns:dc="http://purl.org/dc/elements/1.1/">
  <defs
     id="defs4679" />
  <sodipodi:namedview
     id="base"
     pagecolor="#ffffff"
     bordercolor="#666666"
     borderopacity="1.0"
     inkscape:pageopacity="0"
     inkscape:pageshadow="2"
     inkscape:zoom="0.98994949"
     inkscape:cx="77.781746"
     inkscape:cy="124.24876"
     inkscape:document-units="mm"
     inkscape:current-layer="g5265"
     showgrid="false"
     inkscape:window-width="1920"
     inkscape:window-height="1017"
     inkscape:window-x="-8"
     inkscape:window-y="-8"
     inkscape:window-maximized="1"
     inkscape:pagecheckerboard="true"
     fit-margin-top="0"
     fit-margin-left="0"
     fit-margin-right="0"
     fit-margin-bottom="0" />
  <metadata
     id="metadata4682">
    <rdf:RDF>
      <cc:Work
         rdf:about="">
        <dc:format>image/svg+xml</dc:format>
        <dc:type
           rdf:resource="http://purl.org/dc/dcmitype/StillImage" />
      </cc:Work>
    </rdf:RDF>
  </metadata>
  <g
     inkscape:label="Layer 1"
     inkscape:groupmode="layer"
     id="layer1"
     transform="translate(-76.230555,-135.74683)">
    <g
       id="g5265"
       inkscape:export-xdpi="102"
       inkscape:export-ydpi="102">
      <path
         style="vector-effect:none;fill:#505050;fill-opacity:1;stroke:#333333;stroke-width:1.75371;stroke-linecap:round;stroke-linejoin:round;stroke-miterlimit:4;stroke-dasharray:none;stroke-dashoffset:0;stroke-opacity:1"
         d="m 95.777763,147.2318 c -0.99647,0 -1.798768,0.8023 -1.798768,1.79875 v 7.98253 a 4.1968452,4.1968452 0 0 1 2.43877,-0.78822 4.1968452,4.1968452 0 0 1 4.196855,4.19684 4.1968452,4.1968452 0 0 1 -4.196855,4.19685 4.1968452,4.1968452 0 0 1 -2.43877,-0.78494 v 7.97991 c 0,0.99644 0.802298,1.79874 1.798768,1.79874 h 7.996297 a 4.1968449,4.1968449 0 0 1 -0.80136,-2.45844 4.1968449,4.1968449 0 0 1 4.19684,-4.19684 4.1968449,4.1968449 0 0 1 4.19685,4.19684 4.1968449,4.1968449 0 0 1 -0.80066,2.45844 h 7.99499 c 0.99643,0 1.79874,-0.8023 1.79874,-1.79874 v -7.98385 a 4.1968452,4.1968452 0 0 0 2.44334,0.78888 4.1968452,4.1968452 0 0 0 4.19685,-4.19685 4.1968452,4.1968452 0 0 0 -4.19685,-4.19684 4.1968452,4.1968452 0 0 0 -2.44334,0.79084 v -7.98515 c 0,-0.99645 -0.80231,-1.79875 -1.79874,-1.79875 z"
         id="rect4513"
         inkscape:connector-curvature="0" />
      <path
         style="vector-effect:none;fill:#b7b7b7;fill-opacity:1;stroke:#333333;stroke-width:1.75371;stroke-linecap:round;stroke-linejoin:round;stroke-miterlimit:4;stroke-dasharray:none;stroke-dashoffset:0;stroke-opacity:1"
         d="m 96.281969,138.18289 c -0.704597,-0.7046 -1.838739,-0.70505 -2.543337,-4e-4 l -5.665375,5.66536 a 4.1968452,4.1968452 0 0 0 -1.175919,-2.33146 4.1968452,4.1968452 0 0 0 -5.935243,1e-5 4.1968452,4.1968452 0 0 0 0,5.93523 4.1968452,4.1968452 0 0 0 2.331446,1.17594 l -5.664906,5.6649 c -0.704584,0.7046 -0.704598,1.8392 0,2.5438 l 5.637082,5.63707 a 4.1968452,4.1968452 0 0 1 1.164793,-2.26372 4.1968452,4.1968452 0 0 1 5.935243,0 4.1968452,4.1968452 0 0 1 0,5.93524 4.1968452,4.1968452 0 0 1 -2.262342,1.16618 l 5.635221,5.63522 c 0.704598,0.70461 1.839195,0.7046 2.543792,0 l 16.109996,-16.10999 c 0.7046,-0.7046 0.70416,-1.83873 0,-2.54334 l -5.6496,-5.64961 a 4.1968452,4.1968452 0 0 1 -1.16941,2.29436 4.1968452,4.1968452 0 0 1 -5.935245,-1e-5 4.1968452,4.1968452 0 0 1 0,-5.93523 4.1968452,4.1968452 0 0 1 2.292485,-1.17129 z"
         id="rect4513-3"
         inkscape:connector-curvature="0" />
      <text
         xml:space="preserve"
         style="font-style:normal;font-weight:normal;font-size:12.5351px;line-height:1.25;font-family:sans-serif;fill:#b7b7b7;fill-opacity:1;stroke:#333333;stroke-width:0.188026;stroke-opacity:1"
         x="132.99886"
         y="145.41135"
         id="text3604"><tspan
           sodipodi:role="line"
           id="tspan3602"
           style="font-style:normal;font-variant:normal;font-weight:normal;font-stretch:normal;font-size:12.5351px;font-family:'Lucida Bright';-inkscape-font-specification:'Lucida Bright';stroke-width:0.188026;fill:#b7b7b7;fill-opacity:1;stroke:#333333;stroke-opacity:1"
           x="132.99886"
           y="145.41135">The </tspan><tspan
           sodipodi:role="line"
           style="font-style:normal;font-variant:normal;font-weight:normal;font-stretch:normal;font-size:12.5351px;font-family:'Lucida Bright';-inkscape-font-specification:'Lucida Bright';stroke-width:0.188026;fill:#b7b7b7;fill-opacity:1;stroke:#333333;stroke-opacity:1"
           x="132.99886"
           y="161.14314"
           id="tspan3606">Final </tspan><tspan
           sodipodi:role="line"
           style="font-style:normal;font-variant:normal;font-weight:normal;font-stretch:normal;font-size:12.5351px;font-family:'Lucida Bright';-inkscape-font-specification:'Lucida Bright';stroke-width:0.188026;fill:#b7b7b7;fill-opacity:1;stroke:#333333;stroke-opacity:1"
           x="132.99886"
           y="176.87494"
           id="tspan3608">Clue</tspan></text>
    </g>
  </g>
</svg>
