<?xml version="1.0" encoding="UTF-8" standalone="no"?>
<!-- Generator: Adobe Illustrator 24.2.3, SVG Export Plug-In . SVG Version: 6.00 Build 0)  -->

<svg
   version="1.1"
   id="Layer_1"
   x="0px"
   y="0px"
   viewBox="0 0 168.44164 100"
   xml:space="preserve"
   sodipodi:docname="ticket.svg"
   width="168.44165"
   height="100"
   inkscape:version="1.1.2 (b8e25be833, 2022-02-05)"
   inkscape:export-filename="C:\Users\miria\Downloads\final-clue\ticket.png"
   inkscape:export-xdpi="19.200001"
   inkscape:export-ydpi="19.200001"
   xmlns:inkscape="http://www.inkscape.org/namespaces/inkscape"
   xmlns:sodipodi="http://sodipodi.sourceforge.net/DTD/sodipodi-0.dtd"
   xmlns="http://www.w3.org/2000/svg"
   xmlns:svg="http://www.w3.org/2000/svg"><defs
   id="defs22">
	
	
	
	
	
	
	

	
		
		
		
	
	
	
	
	
	</defs><sodipodi:namedview
   id="namedview20"
   pagecolor="#ffffff"
   bordercolor="#666666"
   borderopacity="1.0"
   inkscape:pageshadow="2"
   inkscape:pageopacity="0.0"
   inkscape:pagecheckerboard="0"
   showgrid="false"
   fit-margin-top="0"
   fit-margin-left="0"
   fit-margin-right="0"
   fit-margin-bottom="0"
   inkscape:zoom="0.26435855"
   inkscape:cx="177.78884"
   inkscape:cy="-366.9259"
   inkscape:window-width="1920"
   inkscape:window-height="1017"
   inkscape:window-x="-8"
   inkscape:window-y="-8"
   inkscape:window-maximized="1"
   inkscape:current-layer="Layer_1" />
<style
   type="text/css"
   id="style2">
	.st0{fill:none;}
	.st1{fill-rule:evenodd;clip-rule:evenodd;fill:#231F20;}
	.st2{fill-rule:evenodd;clip-rule:evenodd;fill:#FFFFFF;}
</style>
<g
   id="g5"
   transform="matrix(0.15042118,0,0,0.15042118,0.15042118,0.15042118)"
   style="stroke-width:13.296;stroke-miterlimit:4;stroke-dasharray:none">
	<rect
   id="canvas_background"
   x="-1"
   y="-1"
   class="st0"
   width="1119.8"
   height="664.79999"
   style="stroke-width:13.296;stroke-miterlimit:4;stroke-dasharray:none" />
</g>
<path
   id="svg_44"
   class="st1"
   d="m 97.247294,29.181709 -8.37846,-3.655234 1.790012,-1.27858 c -0.09025,-3.956078 -1.504211,-6.122143 -4.512635,-6.81408 L 79.572805,21.570398 33.844766,1.8200963 22.833935,5.8664261 72.126957,41.726836 C 62.530085,46.961493 53.39952,53.083635 44.554754,59.702167 L 36.747895,48.345368 27.993382,50.030085 29.963899,63.763539 13.237064,60.694947 3.7304453,62.876054 27.632371,74.533696 c -2.451865,2.572202 -3.956077,4.648014 -4.708183,6.317689 l 0.195548,0.300843 0.195547,0.195547 12.695548,-0.691937 6.768953,14.620939 5.836342,-3.26414 -0.752106,-12.845969 11.672684,-1.48917 38.853791,-16.200361 37.530085,27.572203 3.85078,-7.701565 -11.67268,-16.802046 1.88026,-1.684717 c 0.46631,-2.662455 -0.4663,-4.933815 -2.91817,-6.81408 l -3.38447,2.181108 -4.88869,-7.114922 c 14.3953,-8.002407 25.87244,-15.613719 34.43141,-22.818894 8.46871,-7.205174 12.03369,-12.439831 10.72503,-15.403129 -0.37606,-0.992779 -1.50422,-1.579422 -3.47473,-1.970517 l -7.34056,0.391095 c -3.47473,-1.188327 -7.34055,-1.188327 -11.56739,0 l -0.0902,0.105295 c -10.06318,2.55716 -24.74428,8.483754 -44.223826,17.764741 z m 47.427796,-14.425391 -0.7521,-2.858002 3.85078,-0.601685 4.60289,0.391095 -4.24188,1.27858 c -1.20337,0.511432 -2.33153,1.098075 -3.45969,1.790012 z m -4.24187,0.887485 c 0,-0.691938 0.0902,-1.27858 0.4663,-1.77497 l 1.12816,-1.27858 0.66185,3.760529 z"
   style="fill:#ffffff;fill-opacity:1;stroke:#000000;stroke-width:2;stroke-miterlimit:4;stroke-dasharray:none;stroke-opacity:1" /><path
   id="svg_45"
   class="st2"
   d="m 143.92299,11.898316 0.7521,2.858002 c 1.12816,-0.691937 2.25632,-1.27858 3.47473,-1.77497 l 4.24188,-1.27858 -4.60289,-0.391095 z"
   style="stroke-width:2;stroke-miterlimit:4;stroke-dasharray:none" /><path
   id="svg_46"
   class="st2"
   d="m 140.89952,13.868833 c -0.37605,0.49639 -0.4663,1.083032 -0.4663,1.77497 l 2.25631,0.691937 -0.66185,-3.760529 z"
   style="stroke-width:2;stroke-miterlimit:4;stroke-dasharray:none" />
</svg>
